<svg
  width="204.41425170898438px"
  height="121.48572082519532px"
  xmlns="http://www.w3.org/2000/svg"
  viewBox="147.79287414550782 14.257139587402342 204.41425170898438 121.48572082519532"
  style="background: rgb(152, 216, 255);"
  preserveAspectRatio="xMidYMid"
>
  <defs>
    <filter id="editing-hover" x="-100%" y="-100%" width="300%" height="300%">
      <feFlood flood-color="#ffd5af" result="flood"></feFlood>
      <feComposite operator="in" in2="SourceAlpha" in="flood" result="shadow"></feComposite>
      <feOffset dx="-4" dy="-4" in="SourceGraphic" result="offset-1"></feOffset>
      <feOffset dx="4" dy="4" in="shadow" result="offset-2"></feOffset>
      <feMerge>
        <feMergeNode in="offset-2"></feMergeNode>
        <feMergeNode in="offset-1"></feMergeNode>
      </feMerge>
    </filter>
  </defs>
  <g filter="url(#editing-hover)">
    <g transform="translate(182.77577757835388, 92.59999084472656)">
      <path
        d="M47.17 1.28L47.17 1.28L47.17 1.28Q39.42 1.28 39.42-4.74L39.42-4.74L39.42-4.74Q39.42-7.36 40.54-12.45L40.54-12.45L40.54-12.45Q41.66-17.54 42.05-19.58L42.05-19.58L42.05-19.58Q42.94-24.26 42.94-25.73L42.94-25.73L42.94-25.73Q42.94-28.99 40.51-28.99L40.51-28.99L40.51-28.99Q38.91-28.99 37.38-26.78L37.38-26.78L37.38-26.78Q35.84-24.58 35.14-20.16L35.14-20.16L31.17 0L18.69 1.28L22.14-16.13L22.14-16.13Q22.72-19.01 23.23-22.27L23.23-22.27L23.23-22.27Q23.74-25.54 23.74-26.05L23.74-26.05L23.74-26.05Q23.74-28.99 21.57-28.99L21.57-28.99L21.57-28.99Q20.10-28.99 18.50-26.82L18.50-26.82L18.50-26.82Q16.90-24.64 16-20.16L16-20.16L12.10 0L-0.51 1.28L6.21-32.64L16.64-33.92L15.55-27.46L15.55-27.46Q17.22-30.91 20.29-32.42L20.29-32.42L20.29-32.42Q23.36-33.92 28.16-33.92L28.16-33.92L28.16-33.92Q30.91-33.92 32.70-32.58L32.70-32.58L32.70-32.58Q34.50-31.23 35.07-29.06L35.07-29.06L35.07-29.06Q36.16-31.30 38.94-32.61L38.94-32.61L38.94-32.61Q41.73-33.92 45.15-33.92L45.15-33.92L45.15-33.92Q48.58-33.92 50.27-33.18L50.27-33.18L50.27-33.18Q51.97-32.45 52.99-31.23L52.99-31.23L52.99-31.23Q54.72-28.99 54.72-24.90L54.72-24.90L54.72-24.90Q54.72-20.86 52.99-12.48L52.99-12.48L52.99-12.48Q52.10-8.38 52.10-6.88L52.10-6.88L52.10-6.88Q52.10-5.38 52.96-4.48L52.96-4.48L52.96-4.48Q53.82-3.58 55.10-3.46L55.10-3.46L55.10-3.46Q54.46-1.28 52.26 0L52.26 0L52.26 0Q50.05 1.28 47.17 1.28ZM62.82-1.92L62.82-1.92L62.82-1.92Q61.31-3.58 60.64-6.21L60.64-6.21L60.64-6.21Q59.97-8.83 59.97-13.12L59.97-13.12L59.97-13.12Q59.97-17.41 61.44-21.31L61.44-21.31L61.44-21.31Q62.91-25.22 65.60-28.03L65.60-28.03L65.60-28.03Q71.10-33.92 80.19-33.92L80.19-33.92L80.19-33.92Q83.46-33.92 85.82-32.83L85.82-32.83L96.77-33.92L92.03-8.96L92.03-8.96Q91.84-8.19 91.84-6.78L91.84-6.78L91.84-6.78Q91.84-5.38 92.70-4.48L92.70-4.48L92.70-4.48Q93.57-3.58 94.85-3.46L94.85-3.46L94.85-3.46Q94.21-1.28 91.87 0L91.87 0L91.87 0Q89.54 1.28 86.91 1.28L86.91 1.28L86.91 1.28Q84.29 1.28 82.53 0.29L82.53 0.29L82.53 0.29Q80.77-0.70 80.26-2.37L80.26-2.37L80.26-2.37Q79.23-0.77 77.06 0.26L77.06 0.26L77.06 0.26Q74.88 1.28 71.97 1.28L71.97 1.28L71.97 1.28Q69.06 1.28 66.69 0.51L66.69 0.51L66.69 0.51Q64.32-0.26 62.82-1.92ZM76.32-27.90L76.32-27.90L76.32-27.90Q75.58-26.75 74.94-24.80L74.94-24.80L74.94-24.80Q74.30-22.85 73.25-17.63L73.25-17.63L73.25-17.63Q72.19-12.42 72.19-8.70L72.19-8.70L72.19-8.70Q72.19-4.99 72.77-3.90L72.77-3.90L72.77-3.90Q73.34-2.82 74.37-2.82L74.37-2.82L74.37-2.82Q76.42-2.82 77.92-4.77L77.92-4.77L77.92-4.77Q79.42-6.72 80-10.18L80-10.18L83.39-28.93L83.39-28.93Q82.05-30.08 80.48-30.08L80.48-30.08L80.48-30.08Q78.91-30.08 77.98-29.57L77.98-29.57L77.98-29.57Q77.06-29.06 76.32-27.90ZM108.74 0.19L108.74 0.19L108.74 0.19Q106.69 1.28 103.87 1.28L103.87 1.28L103.87 1.28Q101.06 1.28 99.52-0.16L99.52-0.16L99.52-0.16Q97.98-1.60 97.98-4.38L97.98-4.38L97.98-4.38Q97.98-7.17 99.94-9.89L99.94-9.89L99.94-9.89Q101.89-12.61 104.80-14.14L104.80-14.14L104.80-14.14Q107.71-15.68 109.76-16.58L109.76-16.58L105.73-25.86L105.73-25.86Q104.64-28.22 102.59-28.22L102.59-28.22L102.08-28.16L101.89-28.16L101.89-28.16Q102.27-30.40 104.90-32.13L104.90-32.13L104.90-32.13Q107.52-33.92 110.53-33.92L110.53-33.92L110.53-33.92Q115.39-33.92 117.63-29.06L117.63-29.06L118.14-28.03L120.90-21.25L120.90-21.25Q122.62-22.02 123.36-23.46L123.36-23.46L123.36-23.46Q124.10-24.90 124.10-27.74L124.10-27.74L124.10-27.74Q124.10-30.59 122.56-32.38L122.56-32.38L122.56-32.38Q124.99-33.92 128.19-33.92L128.19-33.92L128.19-33.92Q133.95-33.92 133.95-28.35L133.95-28.35L133.95-28.35Q133.95-22.27 126.34-18.75L126.34-18.75L122.50-16.96L125.95-8.06L125.95-8.06Q126.98-5.38 128.83-4.22L128.83-4.22L128.83-4.22Q129.60-3.71 130.50-3.65L130.50-3.65L130.50-3.65Q128.58-0.51 124.42 0.90L124.42 0.90L124.42 0.90Q123.14 1.28 121.41 1.28L121.41 1.28L121.41 1.28Q119.68 1.28 117.70 0.10L117.70 0.10L117.70 0.10Q115.71-1.09 115.01-2.94L115.01-2.94L111.49-12.10L111.49-12.10Q107.90-10.50 107.90-4.67L107.90-4.67L107.90-4.67Q107.90-1.98 108.74 0.19Z"
        fill="#ffbe98"
      ></path>
    </g>
  </g>
  <style>
    text {
      font-size: 64px;
      font-family: Arial Black;
      dominant-baseline: central;
      text-anchor: middle;
    }
  </style>
</svg>
